HIERARCHY
ROOT Hips
{
	OFFSET -0.001795 -0.223333 0.028219
	CHANNELS 6 Xposition Yposition Zposition Zrotation Yrotation Xrotation 
	JOINT LeftUpLeg
	{
		OFFSET 0.069520 -0.091406 -0.006815
		CHANNELS 3 Zrotation Yrotation Xrotation
		JOINT LeftLeg
		{
			OFFSET 0.034277 -0.375199 -0.004496
			CHANNELS 3 Zrotation Yrotation Xrotation
			JOINT LeftFoot
			{
				OFFSET -0.013596 -0.397961 -0.043693
				CHANNELS 3 Zrotation Yrotation Xrotation
				JOINT LeftToe
				{
					OFFSET 0.026358 -0.055791 0.119288
					CHANNELS 3 Zrotation Yrotation Xrotation
					End Site
					{
						OFFSET 0.000000 0.000000 0.000000
					}
				}
			}
		}
	}
	JOINT RightUpLeg
	{
		OFFSET -0.067670 -0.090522 -0.004320
		CHANNELS 3 Zrotation Yrotation Xrotation
		JOINT RightLeg
		{
			OFFSET -0.038290 -0.382569 -0.008850
			CHANNELS 3 Zrotation Yrotation Xrotation
			JOINT RightFoot
			{
				OFFSET 0.015774 -0.398415 -0.042312
				CHANNELS 3 Zrotation Yrotation Xrotation
				JOINT RightToe
				{
					OFFSET -0.025372 -0.048144 0.123348
					CHANNELS 3 Zrotation Yrotation Xrotation
					End Site
					{
						OFFSET 0.000000 0.000000 0.000000
					}
				}
			}
		}
	}
	JOINT Spine
	{
		OFFSET -0.002533 0.108963 -0.026696
		CHANNELS 3 Zrotation Yrotation Xrotation
		JOINT Spine1
		{
			OFFSET 0.005487 0.135180 0.001092
			CHANNELS 3 Zrotation Yrotation Xrotation
			JOINT Spine2
			{
				OFFSET 0.001457 0.052922 0.025425
				CHANNELS 3 Zrotation Yrotation Xrotation
				JOINT Neck
				{
					OFFSET -0.002778 0.213870 -0.042857
					CHANNELS 3 Zrotation Yrotation Xrotation
					JOINT Head
					{
						OFFSET 0.005152 0.064970 0.051349
						CHANNELS 3 Zrotation Yrotation Xrotation
						End Site
						{
							OFFSET 0.000000 0.000000 0.000000
						}
					}
				}
				JOINT LeftShoulder
				{
					OFFSET 0.078845 0.121749 -0.034090
					CHANNELS 3 Zrotation Yrotation Xrotation
					JOINT LeftArm
					{
						OFFSET 0.090977 0.030469 -0.008868
						CHANNELS 3 Zrotation Yrotation Xrotation
						JOINT LeftForeArm
						{
							OFFSET 0.259612 -0.012772 -0.027456
							CHANNELS 3 Zrotation Yrotation Xrotation
							JOINT LeftHand
							{
								OFFSET 0.249234 0.008986 -0.001171
								CHANNELS 3 Zrotation Yrotation Xrotation
								End Site
								{
									OFFSET 0.000000 0.000000 0.000000
								}
							}
						}
					}
				}
				JOINT RightShoulder
				{
					OFFSET -0.081759 0.118833 -0.038615
					CHANNELS 3 Zrotation Yrotation Xrotation
					JOINT RightArm
					{
						OFFSET -0.096012 0.032551 -0.009143
						CHANNELS 3 Zrotation Yrotation Xrotation
						JOINT RightForeArm
						{
							OFFSET -0.253742 -0.013329 -0.021401
							CHANNELS 3 Zrotation Yrotation Xrotation
							JOINT RightHand
							{
								OFFSET -0.255298 0.007772 -0.005559
								CHANNELS 3 Zrotation Yrotation Xrotation
								End Site
								{
									OFFSET 0.000000 0.000000 0.000000
								}
							}
						}
					}
				}
			}
		}
	}
}
MOTION
Frames: 7
Frame Time: 0.050000
0.000000 0.914309 0.000000 0.158733 -20.372363 2.417103 -5.307264 -2.533699 -30.277597 -1.025762 0.312785 13.084617 2.175739 6.434216 16.857490 0.000000 0.000000 0.000000 3.857062 -1.010213 8.390847 1.072877 1.350480 19.399792 -2.576025 -4.076281 -2.664736 0.000000 0.000000 0.000000 -1.909462 0.001294 2.106717 -2.921375 0.991896 -7.414234 5.070243 12.725026 12.254780 4.702866 -0.495513 -27.271528 0.000000 0.000000 0.000000 -9.158771 -4.629337 1.244198 -59.163015 -19.778650 2.291574 -112.844165 -76.111776 105.693944 0.000000 0.000000 0.000000 5.742072 11.662559 4.282849 64.878485 32.176091 11.876626 50.764869 73.364467 43.061636 0.000000 0.000000 0.000000 
-0.016355 0.917648 0.050530 -0.564946 -16.828420 2.726140 -6.777138 -3.045455 -27.560142 -0.145962 0.048636 15.578973 1.052374 4.352178 11.525491 0.000000 0.000000 0.000000 2.990960 -0.673062 5.041240 4.624773 1.277528 30.102899 1.465779 0.358664 4.391788 0.000000 0.000000 0.000000 -2.471810 0.037305 1.449944 -1.468420 0.471665 -7.636292 4.692739 11.121857 12.655878 5.415880 -0.831222 -27.089183 0.000000 0.000000 0.000000 -11.316541 -2.064812 -0.075419 -58.708095 -21.648597 3.114835 -111.728319 -72.804180 100.954801 0.000000 0.000000 0.000000 5.388009 9.370716 3.406137 65.838270 29.185288 10.237944 68.898088 68.328260 54.242328 0.000000 0.000000 0.000000 
-0.031445 0.924357 0.098678 0.227169 -16.858343 1.675719 -8.005004 -3.106677 -24.489420 -0.309910 0.221793 18.902663 1.404914 4.207709 6.930760 0.000000 0.000000 0.000000 -0.882819 0.096568 -0.570147 8.970029 0.800293 43.093537 1.681425 -2.522996 10.434950 0.000000 0.000000 0.000000 -2.108044 0.006779 1.867668 -2.121860 0.749057 -6.923672 2.942069 12.112070 11.167324 5.527945 -0.807377 -25.999419 0.000000 0.000000 0.000000 -9.524675 -4.015219 0.704294 -59.296368 -22.282009 3.565279 -112.724221 -74.917126 103.132623 0.000000 0.000000 0.000000 6.564981 8.897186 3.355999 66.473222 28.659926 10.390254 67.589042 67.707377 52.961523 0.000000 0.000000 0.000000 
-0.045590 0.927013 0.142902 -0.011852 -16.450728 1.488352 -8.238374 -2.926045 -21.828445 -0.205848 0.220886 19.864893 -0.074263 1.111633 5.003067 0.000000 0.000000 0.000000 -1.887352 0.742296 -7.737114 12.017335 -0.003507 53.928806 -1.857072 -10.089109 13.744288 0.000000 0.000000 0.000000 -1.575571 -0.009020 1.557571 -3.022915 1.209970 -4.709746 2.962024 9.625202 9.410151 5.137662 -0.831048 -26.178445 0.000000 0.000000 0.000000 -8.712881 -3.070272 0.574455 -60.833638 -23.317629 4.644816 -114.027210 -75.336256 105.941229 0.000000 0.000000 0.000000 6.149789 9.463212 3.349601 66.482999 28.734063 10.287787 69.004303 68.287395 53.532826 0.000000 0.000000 0.000000 
-0.059309 0.931383 0.184261 -0.489308 -15.774089 0.060833 -8.544973 -2.504015 -17.048922 0.931672 -0.144535 20.218913 -0.515915 -0.406949 2.340788 0.000000 0.000000 0.000000 -2.529628 1.271991 -13.200079 13.042842 -0.585998 58.534503 -3.671362 -12.424711 10.560831 0.000000 0.000000 0.000000 -1.097023 -0.069597 2.868278 -2.789334 1.094920 -5.275988 2.342647 7.285071 10.415178 4.826375 -0.966394 -26.046948 0.000000 0.000000 0.000000 -10.064694 -3.328361 0.898352 -59.119268 -24.107262 4.839705 -115.755126 -76.831342 110.518263 0.000000 0.000000 0.000000 6.626076 10.292036 3.492117 65.953213 28.752163 9.754906 69.055114 67.947316 52.532028 0.000000 0.000000 0.000000 
-0.071750 0.934746 0.223991 -1.502871 -14.438751 -0.603831 -8.463073 -2.042182 -13.220162 2.811851 -0.803729 20.524204 -1.182620 -2.729876 -0.665256 0.000000 0.000000 0.000000 -2.050670 1.800093 -17.547567 10.727520 0.281125 56.792195 -4.618067 -13.475859 7.019442 0.000000 0.000000 0.000000 0.347821 -0.151874 3.562717 -2.771050 1.116414 -5.015718 2.247034 5.037127 11.047993 3.556634 -0.500833 -26.317496 0.000000 0.000000 0.000000 -10.045441 -3.251560 1.075545 -60.438053 -24.520056 5.297921 -112.871770 -77.559130 108.989311 0.000000 0.000000 0.000000 6.802860 10.706240 3.498397 64.078484 28.649789 9.026754 75.692055 70.550292 59.930796 0.000000 0.000000 0.000000 
-0.083517 0.938057 0.262215 -2.449259 -12.507063 -1.460915 -7.962626 -1.391280 -8.736725 3.664716 -1.162376 19.430398 -1.165551 -3.178089 -1.842992 0.000000 0.000000 0.000000 -1.842425 2.187717 -20.725078 7.992122 0.839981 50.357239 -5.322523 -14.241990 3.892128 0.000000 0.000000 0.000000 1.223646 -0.219022 4.377138 -2.330349 0.953046 -5.111143 2.106658 2.919080 12.044709 3.787100 -0.766915 -26.520596 0.000000 0.000000 0.000000 -10.209359 -3.233296 1.219769 -61.861775 -25.465631 6.056735 -111.971900 -77.685168 108.825852 0.000000 0.000000 0.000000 6.436440 9.621959 2.976441 63.449358 27.894265 8.178178 80.800739 70.446650 63.981490 0.000000 0.000000 0.000000 
